{
  "asset": {
    "version": "2.0",
    "generator": "THREE.GLTFExporter"
  },
  "scenes": [
    {
      "nodes": [
        0
      ],
      "name": "Scene"
    }
  ],
  "scene": 0,
  "nodes": [
    {
      "matrix": [
        -0.1490518829730734,
        -4.6824256588522117e-8,
        -0.4626738048850282,
        0,
        0.4626738048850075,
        -1.852928070294073e-7,
        -0.14905186634359752,
        0,
        -1.46180472503978e-7,
        -0.48608999127121955,
        7.965712109432289e-8,
        0,
        -0.13260570168495178,
        1.0067089796066284,
        -0.2133069932460785,
        1
      ],
      "name": "whale_dome",
      "mesh": 0
    }
  ],
  "bufferViews": [
    {
      "buffer": 0,
      "byteOffset": 0,
      "byteLength": 88800,
      "target": 34962,
      "byteStride": 12
    },
    {
      "buffer": 0,
      "byteOffset": 88800,
      "byteLength": 88800,
      "target": 34962,
      "byteStride": 12
    },
    {
      "buffer": 0,
      "byteOffset": 177600,
      "byteLength": 16320,
      "target": 34963
    }
  ],
  "buffers": [
    {
      "byteLength": 193920,
      "uri": "data:application/octet-stream;base64,"
    }
  ],
  "accessors": [
    {
      "bufferView": 0,
      "componentType": 5126,
      "count": 7400,
      "max": [
        4.099271774291992,
        4.7724609375,
        2.087264060974121
      ],
      "min": [
        -9.48250961303711,
        -9.524735450744629,
        -4.587225914001465
      ],
      "type": "VEC3"
    },
    {
      "bufferView": 1,
      "componentType": 5126,
      "count": 7400,
      "max": [
        1,
        1,
        1
      ],
      "min": [
        -1,
        -1,
        -1
      ],
      "type": "VEC3"
    },
    {
      "bufferView": 2,
      "componentType": 5123,
      "count": 8160,
      "max": [
        7399
      ],
      "min": [
        0
      ],
      "type": "SCALAR"
    }
  ],
  "materials": [
    {
      "pbrMetallicRoughness": {
        "baseColorFactor": [
          0.800000011920929,
          0.800000011920929,
          0.800000011920929,
          1
        ],
        "metallicFactor": 1,
        "roughnessFactor": 0.5
      },
      "doubleSided": true,
      "name": "dome_madeira"
    }
  ],
  "meshes": [
    {
      "primitives": [
        {
          "mode": 4,
          "attributes": {
            "POSITION": 0,
            "NORMAL": 1
          },
          "indices": 2,
          "material": 0
        }
      ]
    }
  ]
}